<svg width="72" height="27" fill="none" xmlns="http://www.w3.org/2000/svg"><g clip-path="url(#a)"><path d="M13.882 13.232 11.09 6.363l-2.792 6.87h5.584zM9.02.768h4.275l9 21.33h-4.849l-1.921-4.753h-8.89l-1.921 4.752H0L9.02.767zM34.47 13.2v-.06c0-2.207-1.713-3.75-3.933-3.75-2.221 0-3.904 1.543-3.904 3.75v.06c0 2.24 1.68 3.754 3.904 3.754 2.223 0 3.933-1.541 3.933-3.753zM22.882 25.314l1.56-3.45a10.446 10.446 0 0 0 5.436 1.483c3.122 0 4.594-1.512 4.594-4.417v-.787c-1.35 1.633-2.822 2.632-5.254 2.632-3.755 0-7.148-2.754-7.148-7.564v-.06c0-4.84 3.454-7.563 7.148-7.563 2.49 0 3.962 1.057 5.193 2.419V5.888h4.565v12.558c0 2.904-.69 5.021-2.043 6.383-1.5 1.512-3.811 2.178-6.934 2.178a15.171 15.171 0 0 1-7.117-1.695zM58.729 19.949l1.953-3.027c1.741 1.272 3.573 1.938 5.076 1.938 1.32 0 1.921-.484 1.921-1.21v-.062c0-.999-1.561-1.332-3.334-1.874-2.25-.675-4.804-1.726-4.804-4.873v-.061c0-3.296 2.644-5.141 5.886-5.141 2.14.032 4.226.683 6.005 1.874l-1.75 3.175c-1.593-.939-3.184-1.512-4.354-1.512-1.111 0-1.683.483-1.683 1.125v.06c0 .9 1.532 1.332 3.274 1.938 2.25.756 4.864 1.845 4.864 4.81v.06c0 3.6-2.673 5.234-6.156 5.234a11.214 11.214 0 0 1-6.905-2.45" fill="#07ABB8"/><path d="M56.447 20.144H41.634v1.953h14.813v-1.953z" fill="#024C44"/><path d="M48.811 1.71c-4.612 0-8.037 3.479-8.037 7.765v.054c0 4.275 3.398 7.71 7.983 7.71 4.586 0 8.037-3.478 8.037-7.764v-.056c0-.762-.111-1.52-.33-2.25l-3.826 2.063v.306c0 2.2-1.435 4.063-3.84 4.063-2.32 0-3.893-1.919-3.893-4.117v-.056c0-2.199 1.435-4.064 3.838-4.064a3.852 3.852 0 0 1 1.524.309l3.86-2.048a8.127 8.127 0 0 0-5.33-1.906" fill="#07ABB8"/><path d="m47.425 6.824.835 1.92c.45.86 1.163 1.073 1.874.717l7.243-3.91V1.913l-3.236 1.71-3.86 2.05-.817.431c-1.283.612-1.634.788-2.039.727" fill="#E52724"/></g><defs><clipPath id="a"><path fill="#fff" transform="translate(0 .768)" d="M0 0h71.79v26.233H0z"/></clipPath></defs></svg>